<svg width="100" height="71" viewBox="0 0 100 71" fill="none" xmlns="http://www.w3.org/2000/svg">
<g clip-path="url(#clip0_748_1266)">
<path d="M60.2197 10.9906L63.7199 12.1602V7.03857H60.5436L60.2197 10.9906Z" fill="#F8A8AB"/>
<path d="M63.2867 8.45548C65.2131 8.45548 66.7747 6.86833 66.7747 4.91048C66.7747 2.95263 65.2131 1.36548 63.2867 1.36548C61.3604 1.36548 59.7988 2.95263 59.7988 4.91048C59.7988 6.86833 61.3604 8.45548 63.2867 8.45548Z" fill="#F8A8AB"/>
<path d="M62.3983 5.18842L62.8794 5.78157L63.7486 4.23411C63.7486 4.23411 64.8584 4.29245 64.8584 3.45482C64.8584 2.61719 65.8766 2.59357 65.8766 2.59357C65.8766 2.59357 67.3185 0.0348382 64.3322 0.708555C64.3322 0.708555 62.2602 -0.733338 61.2311 0.4988C61.2311 0.4988 58.0725 2.11572 58.976 4.93005L60.478 7.83189L60.8183 7.17484C60.8183 7.17484 60.6119 4.41747 62.3983 5.18564V5.18842Z" fill="#2F2E43"/>
<path d="M62.0319 64.1462H59.1699V68.2733H62.0319V64.1462Z" fill="#F8A8AB"/>
<path d="M61.7148 70.6374C61.2255 70.6819 58.7763 70.8791 58.6533 70.3082C58.5413 69.7845 58.7066 69.2372 58.7299 69.1622C58.965 66.7813 59.0524 66.7549 59.1057 66.7396C59.1891 66.7146 59.4324 66.8326 59.8274 67.091L59.852 67.1077L59.8574 67.1369C59.8643 67.1744 60.0392 68.0481 60.8688 67.9134C61.4374 67.8217 61.6219 67.6939 61.6807 67.6314C61.6328 67.6092 61.5727 67.5703 61.5303 67.5036C61.4688 67.4063 61.4579 67.2813 61.4989 67.1313C61.6055 66.7354 61.9253 66.1506 61.939 66.127L61.9759 66.0603L65.2287 68.2912L67.2378 68.8746C67.3895 68.9191 67.5112 69.0288 67.5727 69.1761C67.6574 69.3817 67.6055 69.6206 67.4415 69.7706C67.0765 70.104 66.3522 70.6749 65.5909 70.7458C65.3886 70.7652 65.1207 70.7722 64.82 70.7722C63.564 70.7722 61.7299 70.6402 61.7162 70.6374H61.7148Z" fill="#2F2E43"/>
<path d="M65.6867 28.5656L58.1792 28.1753C58.1792 28.1753 57.0284 32.6093 58.4826 37.2295L58.6576 65.0519H62.8999L66.899 36.3516L65.6867 28.5656Z" fill="#2F2E43"/>
<path d="M64.4213 10.0058L60.3006 7.7832C60.3006 7.7832 55.8601 14.3787 56.4737 17.9515C57.0888 21.5242 58.1794 28.1753 58.1794 28.1753L67.2696 28.5656L65.6828 15.4677L64.4213 10.0058Z" fill="#E2E3E4"/>
<path d="M64.0685 64.1462H61.2065V68.2733H64.0685V64.1462Z" fill="#F8A8AB"/>
<path d="M63.7515 70.6374C63.2622 70.6819 60.813 70.8791 60.69 70.3082C60.5779 69.7845 60.7433 69.2372 60.7665 69.1622C61.0016 66.7813 61.089 66.7549 61.1423 66.7396C61.2257 66.7146 61.469 66.8326 61.864 67.091L61.8886 67.1077L61.8941 67.1369C61.9009 67.1744 62.0758 68.0481 62.9054 67.9134C63.474 67.8217 63.6585 67.6939 63.7173 67.6314C63.6694 67.6092 63.6093 67.5703 63.5669 67.5036C63.5054 67.4063 63.4945 67.2813 63.5355 67.1313C63.6421 66.7354 63.9619 66.1506 63.9756 66.127L64.0125 66.0603L67.2653 68.2912L69.2744 68.8746C69.4261 68.9191 69.5478 69.0288 69.6093 69.1761C69.694 69.3817 69.6421 69.6206 69.4781 69.7706C69.1132 70.104 68.3888 70.6749 67.6275 70.7458C67.4252 70.7652 67.1574 70.7722 66.8567 70.7722C65.6006 70.7722 63.7665 70.6402 63.7528 70.6374H63.7515Z" fill="#2F2E43"/>
<path d="M67.2694 28.5656L58.1792 28.1753C58.1792 28.1753 57.0284 32.6093 58.4826 37.2295L60.2403 65.0519H64.4826L68.4817 36.3516L67.2694 28.5656Z" fill="#2F2E43"/>
<path d="M66.3208 46.7378C65.6852 46.7378 64.9923 46.5794 64.3076 46.4238C63.8005 46.3085 63.3536 46.2794 62.9955 46.2571C62.4515 46.2224 62.021 46.1946 61.7818 45.871C61.5454 45.5515 61.5454 45.0083 61.7818 43.9373C62.0962 42.5149 62.7959 40.2423 63.6515 38.3726C64.7572 35.9611 65.8192 34.8512 66.81 35.0776C68.1371 35.3804 68.6661 37.6322 68.8643 38.9463C69.1403 40.7813 69.1157 42.9622 68.8041 44.3735C68.3914 46.2419 67.4442 46.7364 66.3194 46.7364H66.3208V46.7378ZM66.5627 35.468C65.8342 35.468 64.9404 36.5487 64.0246 38.549C63.1814 40.3896 62.4925 42.6274 62.1823 44.029C61.9841 44.9292 61.9622 45.4195 62.1098 45.6209C62.2356 45.7904 62.565 45.8126 63.0201 45.8404C63.3932 45.864 63.8579 45.8932 64.3964 46.0168C66.5367 46.5044 67.8747 46.6822 68.4037 44.2832C68.9709 41.7134 68.539 35.9 66.7198 35.4846C66.6679 35.4721 66.6146 35.4666 66.5613 35.4666H66.5627V35.468Z" fill="#DFDFE0"/>
<path d="M74.9764 64.0114L54.5915 64.1475L51.4248 62.6667L53.2699 43.5374L55.1259 43.6332L74.2233 44.6209L74.9764 64.0114Z" fill="#D4D4D8"/>
<path opacity="0.2" d="M54.5915 64.1475L51.4248 62.6667L53.2699 43.5374L55.1259 43.6332L54.5915 64.1475Z" fill="#272223"/>
<path d="M66.6286 43.2096C66.25 43.2096 65.8359 43.1151 65.4286 43.0221C65.1266 42.9526 64.8601 42.9359 64.6455 42.922C64.3216 42.9012 64.0646 42.8845 63.9225 42.6914C63.7817 42.5011 63.7817 42.1775 63.9225 41.5385C64.1097 40.6897 64.5266 39.3354 65.0377 38.2213C65.6965 36.7836 66.3307 36.1224 66.9211 36.2571C67.7124 36.4377 68.0281 37.7796 68.1457 38.5644C68.3097 39.659 68.296 40.9592 68.1102 41.7996C67.8641 42.9137 67.2997 43.2082 66.6286 43.2082V43.2096ZM66.7735 36.4905C66.3389 36.4905 65.8058 37.135 65.2605 38.3283C64.7575 39.4257 64.3462 40.7592 64.163 41.5954C64.0441 42.1316 64.0318 42.4247 64.1206 42.5442C64.1958 42.6456 64.3913 42.6581 64.6632 42.6748C64.886 42.6887 65.1621 42.7067 65.4833 42.7804C66.7585 43.0707 67.5566 43.1762 67.8723 41.7469C68.2099 40.2147 67.953 36.7489 66.8692 36.5016C66.8377 36.4946 66.8063 36.4905 66.7749 36.4905H66.7735Z" fill="#DFDFE0"/>
<path d="M71.7879 53.5097L59.6349 53.5903L57.7461 52.7082L58.8463 41.3022L59.9534 41.3592L71.3396 41.9482L71.7879 53.5097Z" fill="#E2E3E4"/>
<path opacity="0.2" d="M59.6349 53.5903L57.7461 52.7082L58.8463 41.3022L59.9534 41.3592L59.6349 53.5903Z" fill="#272223"/>
<path d="M67.339 35.5112C67.5426 36.528 67.1695 37.4573 66.508 37.5865C65.8465 37.7157 65.1454 36.9947 64.9431 35.9779C64.857 35.5723 64.8707 35.1528 64.9827 34.7527L64.1777 30.4312L66.2579 30.0964L66.8306 34.3916C67.0889 34.7194 67.2625 35.1028 67.339 35.5112Z" fill="#F8A8AB"/>
<path d="M59.1797 9.92527C59.1797 9.92527 62.222 9.53354 62.5856 10.4573C62.9491 11.3811 67.2216 33.3692 67.2216 33.3692H64.4034L59.1797 9.92527Z" fill="#E2E3E4"/>
<path d="M38.0419 14.6315L34.9858 15.6525V11.1824H37.7589L38.0419 14.6315Z" fill="#F8A8AB"/>
<path d="M35.3644 12.4201C37.0462 12.4201 38.4095 11.0344 38.4095 9.32515C38.4095 7.61587 37.0462 6.23022 35.3644 6.23022C33.6827 6.23022 32.3193 7.61587 32.3193 9.32515C32.3193 11.0344 33.6827 12.4201 35.3644 12.4201Z" fill="#F8A8AB"/>
<path d="M36.2006 9.01808C35.6908 9.0028 35.356 8.47911 35.1578 8.00125C34.9596 7.5234 34.756 6.97471 34.2831 6.77745C33.8963 6.61632 33.2143 7.70676 32.9095 7.41644C32.591 7.11362 32.9013 5.55921 33.2389 5.28C33.5765 5.00078 34.0384 4.94661 34.473 4.92577C35.5336 4.87577 36.6011 4.96328 37.6411 5.18415C38.2849 5.32028 38.9464 5.52587 39.4111 5.99816C39.9988 6.59826 40.1491 7.50257 40.1915 8.34853C40.2352 9.21394 40.186 10.1196 39.7719 10.8767C39.3578 11.6338 38.4912 12.1922 37.6603 11.9991C37.5769 11.5407 37.6616 11.0698 37.6944 10.6031C37.7259 10.1377 37.6931 9.63484 37.4129 9.26395C37.1327 8.89306 36.5354 8.74582 36.2102 9.07503" fill="#2F2E43"/>
<path d="M39.947 10.0904C40.2518 9.86396 40.6167 9.67365 40.9912 9.72088C41.3957 9.77089 41.7388 10.1098 41.8426 10.5113C41.9465 10.9127 41.8303 11.3545 41.5789 11.6823C41.3287 12.0101 40.9556 12.2268 40.562 12.3352C40.3338 12.3977 40.0836 12.4241 39.8663 12.3296C39.5465 12.1893 39.3729 11.774 39.4987 11.4434" fill="#2F2E43"/>
<path d="M37.0333 64.3752H34.1714V68.5023H37.0333V64.3752Z" fill="#F8A8AB"/>
<path d="M31.3831 70.9999C31.0824 70.9999 30.8145 70.993 30.6123 70.9735C29.8524 70.9027 29.1266 70.3318 28.7617 69.9984C28.5977 69.8484 28.5458 69.6094 28.6305 69.4039C28.692 69.2566 28.8136 69.1455 28.9654 69.1024L30.9745 68.519L34.2273 66.2881L34.2642 66.3548C34.2779 66.3798 34.5977 66.9646 34.7043 67.3591C34.7453 67.5091 34.7343 67.6341 34.6728 67.7314C34.6305 67.798 34.5703 67.8369 34.5225 67.8592C34.5813 67.9217 34.7658 68.0495 35.3343 68.1412C36.164 68.2745 36.3389 67.4008 36.3457 67.3646L36.3512 67.3355L36.3758 67.3188C36.7708 67.0604 37.0141 66.9424 37.0974 66.9674C37.1494 66.9826 37.2368 67.0104 37.4733 69.39C37.4965 69.465 37.6619 70.0123 37.5498 70.536C37.4282 71.1055 34.979 70.9096 34.4883 70.8652C34.4747 70.8666 32.6405 70.9999 31.3845 70.9999H31.3831Z" fill="#2F2E43"/>
<path d="M45.1823 61.1302L42.7539 62.6694L44.9027 66.1713L47.3311 64.632L45.1823 61.1302Z" fill="#F8A8AB"/>
<path d="M41.9562 70.4346C41.62 70.4346 41.3111 70.3929 41.0911 70.354C40.8751 70.3151 40.7057 70.1401 40.6701 69.9206C40.6455 69.7622 40.6906 69.6025 40.7972 69.4844L42.1981 67.9092L43.7972 64.2669L43.8628 64.3031C43.8874 64.317 44.4628 64.6406 44.7594 64.9184C44.8728 65.024 44.9289 65.1365 44.9261 65.2518C44.9248 65.3324 44.8947 65.3963 44.8646 65.4421C44.9467 65.4643 45.1694 65.4727 45.6997 65.2449C46.4733 64.9129 46.1671 64.0766 46.1535 64.0419L46.1425 64.0141L46.1548 63.9877C46.3558 63.5557 46.4993 63.3251 46.584 63.3015C46.6373 63.2862 46.7248 63.2626 48.1639 65.156C48.2227 65.206 48.6478 65.5824 48.8254 66.0867C49.0182 66.6354 46.8382 67.7869 46.3995 68.012C46.3858 68.0231 44.1047 69.7081 43.1672 70.1873C42.7954 70.3776 42.3553 70.436 41.9549 70.436L41.9562 70.4346Z" fill="#2F2E43"/>
<path d="M39.1407 29.863H31.1275L30.4004 37.4392L33.5822 65.4325H37.6728L36.0368 49.2647L42.6723 63.8614L46.3078 61.2749L41.1265 47.6478C41.1265 47.6478 42.9771 35.7765 41.5229 32.8191C40.0687 29.8616 39.1407 29.863 39.1407 29.863Z" fill="#2F2E43"/>
<path d="M43.1261 30.3241H30.4004L34.2177 13.6021H39.7625L43.1261 30.3241Z" fill="#D4D4D8"/>
<path d="M27.2392 13.2729C27.0356 12.2561 27.4087 11.3268 28.0702 11.1976C28.7317 11.0684 29.4328 11.7894 29.6351 12.8062C29.7212 13.2118 29.7075 13.6313 29.5955 14.0314L30.4005 18.3529L28.3203 18.6877L27.7476 14.3925C27.4893 14.0647 27.3158 13.6813 27.2392 13.2729Z" fill="#F8A8AB"/>
<path d="M39.6269 13.6022H34.7368L31.4402 20.3033L30.1965 15.2816L27.4644 15.5761C27.4644 15.5761 28.1108 25.3874 30.9359 25.0554C33.7609 24.7234 40.3499 15.8845 39.6256 13.6008H39.6269V13.6022Z" fill="#D4D4D8"/>
<path d="M44.2453 45.3863C43.8667 45.3863 43.4526 45.2919 43.0453 45.1988C42.7433 45.1294 42.4768 45.1127 42.2622 45.0988C41.9383 45.078 41.6813 45.0613 41.5392 44.8682C41.3984 44.6779 41.3984 44.3542 41.5392 43.7153C41.7264 42.8665 42.1433 41.5121 42.6544 40.3981C43.3132 38.9603 43.9474 38.2991 44.5378 38.4339C45.3291 38.6145 45.6448 39.9563 45.7624 40.7412C45.9264 41.8358 45.9127 43.136 45.7269 43.9764C45.4808 45.0905 44.9164 45.385 44.2453 45.385V45.3863ZM44.3902 38.6672C43.9556 38.6672 43.4225 39.3118 42.8772 40.505C42.3743 41.6024 41.9629 42.936 41.7797 43.7722C41.6608 44.3084 41.6485 44.6015 41.7374 44.721C41.8125 44.8224 42.008 44.8349 42.2799 44.8515C42.5027 44.8654 42.7788 44.8835 43.1 44.9571C44.3752 45.2474 45.1733 45.353 45.489 43.9236C45.8266 42.3914 45.5697 38.9256 44.4859 38.6784C44.4544 38.6714 44.423 38.6672 44.3916 38.6672H44.3902Z" fill="#DFDFE0"/>
<path d="M49.4061 55.685L37.2531 55.7656L35.3643 54.8835L36.4645 43.4775L37.5715 43.5345L48.9578 44.1235L49.4061 55.685Z" fill="#E2E3E4"/>
<path opacity="0.2" d="M37.2531 55.7656L35.3643 54.8835L36.4645 43.4775L37.5715 43.5345L37.2531 55.7656Z" fill="#272223"/>
<path d="M45.087 39.0854C45.2907 40.1022 44.9176 41.0315 44.2561 41.1607C43.5946 41.2899 42.8934 40.569 42.6912 39.5521C42.605 39.1465 42.6187 38.727 42.7308 38.3269L41.9258 34.0054L44.006 33.6707L44.5786 37.9658C44.8369 38.2936 45.0105 38.677 45.087 39.0854Z" fill="#F8A8AB"/>
<path d="M36.8389 13.6022C36.8389 13.6022 39.6174 13.4827 39.7623 13.6022C40.5209 14.2314 44.9696 36.9447 44.9696 36.9447H42.1514L36.8389 13.6022Z" fill="#D4D4D8"/>
<path d="M96.4065 60.8806C96.4065 60.8806 104.101 66.557 88.4806 72.887C88.4806 72.887 85.7134 66.3934 89.7923 61.6548C90.5844 60.731 91.6833 60.1336 92.8809 59.9758C94.0786 59.818 95.2917 60.1109 96.2906 60.7988L96.4065 60.8806Z" fill="#D4D4D8"/>
<path d="M96.3214 60.7673C96.3214 60.7673 88.9122 65.5447 88.4805 72.8859" stroke="#535461" stroke-miterlimit="10"/>
<path d="M88.3209 72.0372C88.3209 72.0372 90.8749 63.2504 87.8416 56.783C86.5682 54.0691 86.1459 51.0216 86.7339 48.0759C87.015 46.6773 87.4222 45.3078 87.9503 43.9846" stroke="#535461" stroke-width="2" stroke-miterlimit="10"/>
<path d="M86.063 39.9049C86.063 40.9823 87.9875 44.1011 87.9875 44.1011C87.9875 44.1011 89.912 40.9781 89.912 39.9049C89.9004 39.3957 89.6926 38.9113 89.333 38.5553C88.9735 38.1993 88.4907 38 87.988 38C87.4853 38 87.0026 38.1993 86.6431 38.5553C86.2835 38.9113 86.0757 39.3957 86.064 39.9049H86.063Z" fill="#D4D4D8"/>
<path d="M82.8829 45.8698C83.4605 46.7741 86.7506 48.335 86.7506 48.335C86.7506 48.335 86.6905 44.6539 86.1129 43.7497C85.8295 43.3297 85.3954 43.0386 84.9032 42.9384C84.411 42.8382 83.8996 42.9368 83.4782 43.2133C83.0568 43.4898 82.7587 43.9222 82.6474 44.4183C82.5362 44.9144 82.6207 45.4349 82.8829 45.8687V45.8698Z" fill="#D4D4D8"/>
<path d="M83.0219 56.0635C83.9712 56.5481 87.5884 56.2135 87.5884 56.2135C87.5884 56.2135 85.7032 53.0663 84.7539 52.5817C84.2996 52.3609 83.7781 52.3294 83.3012 52.494C82.8243 52.6586 82.4301 53.006 82.2033 53.4618C81.9764 53.9176 81.9349 54.4454 82.0878 54.9318C82.2407 55.4183 82.5757 55.8245 83.0209 56.0635H83.0219Z" fill="#D4D4D8"/>
<path d="M84.8408 63.7497C85.6948 64.3896 89.3172 64.6791 89.3172 64.6791C89.3172 64.6791 87.9838 61.255 87.1297 60.6141C86.9267 60.4593 86.6954 60.3469 86.4493 60.2831C86.2032 60.2194 85.9471 60.2057 85.6957 60.2427C85.4443 60.2798 85.2027 60.3669 84.9847 60.4991C84.7667 60.6313 84.5767 60.8059 84.4256 61.0128C84.2746 61.2198 84.1654 61.455 84.1045 61.7049C84.0436 61.9548 84.0321 62.2144 84.0707 62.4689C84.1093 62.7233 84.1972 62.9674 84.3294 63.1873C84.4615 63.4071 84.6353 63.5982 84.8408 63.7497Z" fill="#D4D4D8"/>
<path d="M90.7953 48.5438C90.0334 49.2939 86.4814 50.0713 86.4814 50.0713C86.4814 50.0713 87.3511 46.4972 88.113 45.746C88.2943 45.5676 88.5085 45.427 88.7434 45.3324C88.9783 45.2379 89.2292 45.1911 89.482 45.1948C89.7347 45.1985 89.9842 45.2526 90.2163 45.354C90.4484 45.4554 90.6585 45.6022 90.8347 45.7859C91.0108 45.9696 91.1495 46.1867 91.2428 46.4247C91.3362 46.6627 91.3823 46.917 91.3787 47.1731C91.375 47.4292 91.3216 47.6821 91.2215 47.9173C91.1214 48.1525 90.9766 48.3654 90.7953 48.5438Z" fill="#D4D4D8"/>
<path d="M92.8057 57.5604C91.8564 58.0451 88.2393 57.7104 88.2393 57.7104C88.2393 57.7104 90.1244 54.5633 91.0738 54.0786C91.3001 53.9557 91.5485 53.8798 91.8042 53.8556C92.0599 53.8314 92.3178 53.8593 92.5627 53.9377C92.8076 54.016 93.0346 54.1433 93.2302 54.3119C93.4258 54.4805 93.5861 54.6871 93.7017 54.9195C93.8173 55.1519 93.8859 55.4054 93.9033 55.6651C93.9207 55.9247 93.8867 56.1853 93.8032 56.4314C93.7197 56.6775 93.5884 56.9042 93.4171 57.0981C93.2458 57.292 93.0379 57.4492 92.8057 57.5604Z" fill="#D4D4D8"/>
<path d="M93.577 66.601C92.7229 67.2409 89.1006 67.5305 89.1006 67.5305C89.1006 67.5305 90.434 64.1064 91.2881 63.4654C91.6987 63.1627 92.2107 63.0368 92.7125 63.1149C93.2144 63.1931 93.6654 63.4691 93.9674 63.8827C94.2694 64.2964 94.3978 64.8142 94.3246 65.3233C94.2515 65.8325 93.9828 66.2917 93.577 66.601Z" fill="#D4D4D8"/>
<path opacity="0.25" d="M86.063 39.9049C86.063 40.9823 87.9875 44.1011 87.9875 44.1011C87.9875 44.1011 89.912 40.9781 89.912 39.9049C89.9004 39.3957 89.6926 38.9113 89.333 38.5553C88.9735 38.1993 88.4907 38 87.988 38C87.4853 38 87.0026 38.1993 86.6431 38.5553C86.2835 38.9113 86.0757 39.3957 86.064 39.9049H86.063Z" fill="black"/>
<path opacity="0.25" d="M82.8829 45.8698C83.4605 46.7741 86.7506 48.335 86.7506 48.335C86.7506 48.335 86.6905 44.6539 86.1129 43.7497C85.8295 43.3297 85.3954 43.0386 84.9032 42.9384C84.411 42.8382 83.8996 42.9368 83.4782 43.2133C83.0568 43.4898 82.7587 43.9222 82.6474 44.4183C82.5362 44.9144 82.6207 45.4349 82.8829 45.8687V45.8698Z" fill="black"/>
<path opacity="0.25" d="M83.0219 56.0635C83.9712 56.5481 87.5884 56.2135 87.5884 56.2135C87.5884 56.2135 85.7032 53.0663 84.7539 52.5817C84.2996 52.3609 83.7781 52.3294 83.3012 52.494C82.8243 52.6586 82.4301 53.006 82.2033 53.4618C81.9764 53.9176 81.9349 54.4454 82.0878 54.9318C82.2407 55.4183 82.5757 55.8245 83.0209 56.0635H83.0219Z" fill="black"/>
<path opacity="0.25" d="M84.8408 63.7497C85.6948 64.3896 89.3172 64.6791 89.3172 64.6791C89.3172 64.6791 87.9838 61.255 87.1297 60.6141C86.9267 60.4593 86.6954 60.3469 86.4493 60.2831C86.2032 60.2194 85.9471 60.2057 85.6957 60.2427C85.4443 60.2798 85.2027 60.3669 84.9847 60.4991C84.7667 60.6313 84.5767 60.8059 84.4256 61.0128C84.2746 61.2198 84.1654 61.455 84.1045 61.7049C84.0436 61.9548 84.0321 62.2144 84.0707 62.4689C84.1093 62.7233 84.1972 62.9674 84.3294 63.1873C84.4615 63.4071 84.6353 63.5982 84.8408 63.7497Z" fill="black"/>
<path opacity="0.25" d="M90.7953 48.5438C90.0334 49.2939 86.4814 50.0713 86.4814 50.0713C86.4814 50.0713 87.3511 46.4972 88.113 45.746C88.2943 45.5676 88.5085 45.427 88.7434 45.3324C88.9783 45.2379 89.2292 45.1911 89.482 45.1948C89.7347 45.1985 89.9842 45.2526 90.2163 45.354C90.4484 45.4554 90.6585 45.6022 90.8347 45.7859C91.0108 45.9696 91.1495 46.1867 91.2428 46.4247C91.3362 46.6627 91.3823 46.917 91.3787 47.1731C91.375 47.4292 91.3216 47.6821 91.2215 47.9173C91.1214 48.1525 90.9766 48.3654 90.7953 48.5438Z" fill="black"/>
<path opacity="0.25" d="M92.8057 57.5604C91.8564 58.0451 88.2393 57.7104 88.2393 57.7104C88.2393 57.7104 90.1244 54.5633 91.0738 54.0786C91.3001 53.9557 91.5485 53.8798 91.8042 53.8556C92.0599 53.8314 92.3178 53.8593 92.5627 53.9377C92.8076 54.016 93.0346 54.1433 93.2302 54.3119C93.4258 54.4805 93.5861 54.6871 93.7017 54.9195C93.8173 55.1519 93.8859 55.4054 93.9033 55.6651C93.9207 55.9247 93.8867 56.1853 93.8032 56.4314C93.7197 56.6775 93.5884 56.9042 93.4171 57.0981C93.2458 57.292 93.0379 57.4492 92.8057 57.5604Z" fill="black"/>
<path opacity="0.25" d="M93.577 66.601C92.7229 67.2409 89.1006 67.5305 89.1006 67.5305C89.1006 67.5305 90.434 64.1064 91.2881 63.4654C91.6987 63.1627 92.2107 63.0368 92.7125 63.1149C93.2144 63.1931 93.6654 63.4691 93.9674 63.8827C94.2694 64.2964 94.3978 64.8142 94.3246 65.3233C94.2515 65.8325 93.9828 66.2917 93.577 66.601Z" fill="black"/>
</g>
<defs>
<clipPath id="clip0_748_1266">
<rect width="100" height="71" fill="white"/>
</clipPath>
</defs>
</svg>
