<svg width="151" height="77" viewBox="0 0 151 77" fill="none" xmlns="http://www.w3.org/2000/svg">
<path opacity="0.1" d="M142.301 55.7023C137.175 62.2381 139.166 71.7866 142.423 79.4321C143.516 81.9925 144.748 84.695 144.289 87.4411C143.727 90.7979 140.745 93.2564 137.6 94.5487C131.881 96.9201 125.034 96.3547 119.78 93.0771C115.239 90.2438 111.986 85.6367 107.367 82.9326C99.6344 78.4096 89.7975 80.117 81.404 83.2331C75.4657 85.4381 68.9733 88.307 63.0721 86.0018C58.9204 84.3865 56.0496 80.4336 54.4853 76.2498C53.7297 74.229 53.1819 72.0499 51.7465 70.4345C50.8894 69.483 49.7714 68.8062 48.6243 68.2376C38.1526 63.0345 24.9422 65.8145 14.7798 60.0509C7.91517 56.1546 3.52028 48.8031 1.56932 41.1382C-0.381641 33.4732 -0.149653 25.4352 0.344933 17.5425C0.696138 11.9323 1.32605 5.94411 4.90093 1.6133C8.68041 -2.9485 15.1713 -4.6511 21.0451 -3.78041C26.9189 -2.90973 32.2289 0.193394 36.9057 3.84736C42.7521 8.41401 48.1732 14.1017 55.352 15.9529C60.2399 17.2129 65.3823 16.5232 70.4248 16.2857C78.8537 15.8867 87.2843 16.7703 95.6665 17.7395C103.691 18.67 111.777 19.6941 119.418 22.311C124.828 24.1639 129.165 27.5254 134.273 29.8742C137.603 31.4056 141.234 31.8288 144.386 33.7785C148.27 36.1806 151.829 40.3596 150.83 45.2477C149.881 49.9015 145.024 52.2261 142.301 55.7023Z" fill="#D4D4D8"/>
</svg>
