<svg width="95" height="71" viewBox="0 0 95 71" fill="none" xmlns="http://www.w3.org/2000/svg">
<g clip-path="url(#clip0_748_1267)">
<path opacity="0.1" d="M4.73096 74.2421C5.47542 74.6271 6.25544 74.9596 7.02501 75.2911C9.868 76.4954 12.7539 77.7102 15.8081 78.1235C21.54 78.8988 27.4602 76.7996 33.095 78.1057C37.8159 79.1988 41.7201 82.5484 46.3323 84.0402C48.4768 84.7336 50.7081 85.0053 52.9593 85.0053H53.25C53.5288 85.0018 53.8055 84.9948 54.0802 84.9843C56.3627 84.8983 58.6547 84.5594 60.8923 84.1262C67.9574 82.7624 75.148 80.2625 80.5496 75.6604C64.8258 72.7724 32.4279 68.3475 4.73096 74.2421Z" fill="#D4D4D8"/>
<path d="M13.5905 76C13.5905 76 17.1711 64.7238 12.9185 56.4242C11.1333 52.9415 10.5411 49.0306 11.3655 45.2504C11.7597 43.4556 12.3306 41.6981 13.0709 40" stroke="#535461" stroke-width="2" stroke-miterlimit="10"/>
<path d="M11 34.4978C11 35.9105 13.5 40 13.5 40C13.5 40 16 35.905 16 34.4978C15.9849 33.8301 15.7149 33.1949 15.2478 32.7281C14.7808 32.2613 14.1537 32 13.5007 32C12.8477 32 12.2206 32.2613 11.7535 32.7281C11.2865 33.1949 11.0165 33.8301 11.0013 34.4978H11Z" fill="#D4D4D8"/>
<path d="M6.39945 41.8721C7.08657 43.0195 11 45 11 45C11 45 10.9286 40.3295 10.2415 39.1822C10.0819 38.9006 9.8719 38.6564 9.62371 38.4639C9.37552 38.2715 9.0942 38.1346 8.79633 38.0615C8.49846 37.9883 8.19006 37.9804 7.8893 38.038C7.58853 38.0957 7.30149 38.2179 7.04508 38.3973C6.78866 38.5767 6.56807 38.8098 6.39629 39.0828C6.22451 39.3559 6.10501 39.6633 6.04485 39.987C5.98468 40.3107 5.98506 40.6441 6.04596 40.9676C6.10686 41.2912 6.22705 41.5983 6.39945 41.8708V41.8721Z" fill="#D4D4D8"/>
<path d="M6.55525 55.6037C7.89505 56.3351 13 55.8301 13 55.8301C13 55.8301 10.3394 51.0807 8.99961 50.3493C8.68017 50.1637 8.32967 50.0493 7.96878 50.0128C7.60789 49.9762 7.2439 50.0183 6.89826 50.1366C6.55261 50.2549 6.23231 50.4469 5.95623 50.7014C5.68014 50.9558 5.45386 51.2676 5.29071 51.6183C5.12756 51.969 5.03084 52.3516 5.00625 52.7434C4.98167 53.1353 5.02972 53.5285 5.14756 53.8999C5.26541 54.2713 5.45067 54.6134 5.69243 54.906C5.93419 55.1986 6.22756 55.4359 6.55525 55.6037Z" fill="#D4D4D8"/>
<path d="M9.02476 64.9529C10.1648 65.6738 15 66 15 66C15 66 13.2201 62.1425 12.0801 61.4204C11.532 61.0794 10.8486 60.9375 10.1787 61.0255C9.50876 61.1136 8.9067 61.4245 8.50364 61.8905C8.10058 62.3565 7.92918 62.9399 8.02679 63.5135C8.1244 64.0871 8.48311 64.6045 9.02476 64.9529Z" fill="#D4D4D8"/>
<path d="M16.2851 45.1208C15.3516 46.0436 11 47 11 47C11 47 12.0654 42.6026 12.9989 41.6785C13.4474 41.235 14.0507 40.9911 14.6761 41.0003C15.3014 41.0094 15.8975 41.2711 16.3333 41.7275C16.7691 42.184 17.0088 42.798 16.9998 43.4343C16.9907 44.0707 16.7336 44.6773 16.2851 45.1208Z" fill="#D4D4D8"/>
<path d="M19.5337 57.5997C18.1754 58.3385 13 57.8284 13 57.8284C13 57.8284 15.6973 53.0311 17.0556 52.2923C17.7055 51.9558 18.4517 51.9079 19.1341 52.1587C19.8164 52.4095 20.3804 52.9392 20.705 53.634C21.0296 54.3288 21.0889 55.1333 20.8702 55.8747C20.6514 56.6162 20.1721 57.2355 19.5352 57.5997H19.5337Z" fill="#D4D4D8"/>
<path d="M20.1216 68.7435C19.1445 69.6086 15 70 15 70C15 70 16.5256 65.3709 17.5028 64.5044C17.9726 64.0952 18.5584 63.9249 19.1326 64.0306C19.7068 64.1363 20.2228 64.5094 20.5683 65.0686C20.9138 65.6278 21.0607 66.3278 20.977 67.0162C20.8934 67.7045 20.5859 68.3254 20.1216 68.7435Z" fill="#D4D4D8"/>
<path opacity="0.25" d="M11 34.4978C11 35.9105 13.5 40 13.5 40C13.5 40 16 35.905 16 34.4978C15.9849 33.8301 15.7149 33.1949 15.2478 32.7281C14.7808 32.2613 14.1537 32 13.5007 32C12.8477 32 12.2206 32.2613 11.7535 32.7281C11.2865 33.1949 11.0165 33.8301 11.0013 34.4978H11Z" fill="black"/>
<path opacity="0.25" d="M6.39945 41.8721C7.08657 43.0195 11 45 11 45C11 45 10.9286 40.3295 10.2415 39.1822C10.0819 38.9006 9.8719 38.6564 9.62371 38.4639C9.37552 38.2715 9.0942 38.1346 8.79633 38.0615C8.49846 37.9883 8.19006 37.9804 7.8893 38.038C7.58853 38.0957 7.30149 38.2179 7.04508 38.3973C6.78866 38.5767 6.56807 38.8098 6.39629 39.0828C6.22451 39.3559 6.10501 39.6633 6.04485 39.987C5.98468 40.3107 5.98506 40.6441 6.04596 40.9676C6.10686 41.2912 6.22705 41.5983 6.39945 41.8708V41.8721Z" fill="black"/>
<path opacity="0.25" d="M6.55525 55.6037C7.89505 56.3351 13 55.8301 13 55.8301C13 55.8301 10.3394 51.0807 8.99961 50.3493C8.68017 50.1637 8.32967 50.0493 7.96878 50.0128C7.60789 49.9762 7.2439 50.0183 6.89826 50.1366C6.55261 50.2549 6.23231 50.4469 5.95623 50.7014C5.68014 50.9558 5.45386 51.2676 5.29071 51.6183C5.12756 51.969 5.03084 52.3516 5.00625 52.7434C4.98167 53.1353 5.02972 53.5285 5.14756 53.8999C5.26541 54.2713 5.45067 54.6134 5.69243 54.906C5.93419 55.1986 6.22756 55.4359 6.55525 55.6037Z" fill="black"/>
<path opacity="0.25" d="M9.02476 64.9529C10.1648 65.6738 15 66 15 66C15 66 13.2201 62.1425 12.0801 61.4204C11.532 61.0794 10.8486 60.9375 10.1787 61.0255C9.50876 61.1136 8.9067 61.4245 8.50364 61.8905C8.10058 62.3565 7.92918 62.9399 8.02679 63.5135C8.1244 64.0871 8.48311 64.6045 9.02476 64.9529Z" fill="black"/>
<path opacity="0.25" d="M16.2851 45.1208C15.3516 46.0436 11 47 11 47C11 47 12.0654 42.6026 12.9989 41.6785C13.4474 41.235 14.0507 40.9911 14.6761 41.0003C15.3014 41.0094 15.8975 41.2711 16.3333 41.7275C16.7691 42.184 17.0088 42.798 16.9998 43.4343C16.9907 44.0707 16.7336 44.6773 16.2851 45.1208Z" fill="black"/>
<path opacity="0.25" d="M19.5337 57.5997C18.1754 58.3385 13 57.8284 13 57.8284C13 57.8284 15.6973 53.0311 17.0556 52.2923C17.7055 51.9558 18.4517 51.9079 19.1341 52.1587C19.8164 52.4095 20.3804 52.9392 20.705 53.634C21.0296 54.3288 21.0889 55.1333 20.8702 55.8747C20.6514 56.6162 20.1721 57.2355 19.5352 57.5997H19.5337Z" fill="black"/>
<path opacity="0.25" d="M20.1216 68.7435C19.1445 69.6086 15 70 15 70C15 70 16.5256 65.3709 17.5028 64.5044C17.9726 64.0952 18.5584 63.9249 19.1326 64.0306C19.7068 64.1363 20.2228 64.5094 20.5683 65.0686C20.9138 65.6278 21.0607 66.3278 20.977 67.0162C20.8934 67.7045 20.5859 68.3254 20.1216 68.7435Z" fill="black"/>
<path d="M30.2933 72C30.2933 72 32.0879 66.0469 29.9575 61.6664C29.0521 59.8345 28.7792 57.7649 29.1798 55.7685C29.3774 54.8221 29.6634 53.8954 30.0341 53" stroke="#535461" stroke-width="2" stroke-miterlimit="10"/>
<path d="M29.0015 50.2686C29.0015 50.9694 30.5007 53 30.5007 53C30.5007 53 32 50.9682 32 50.2686C32 49.9322 31.842 49.6095 31.5607 49.3716C31.2794 49.1337 30.8978 49 30.5 49C30.1022 49 29.7206 49.1337 29.4393 49.3716C29.158 49.6095 29 49.9322 29 50.2686H29.0015Z" fill="#D4D4D8"/>
<path d="M27.2219 54.1993C27.6339 54.859 30 56 30 56C30 56 29.9574 53.3103 29.5427 52.6506C29.4441 52.4935 29.3164 52.358 29.1669 52.2518C29.0175 52.1456 28.8492 52.0707 28.6717 52.0316C28.4942 51.9924 28.3109 51.9897 28.1324 52.0235C27.9539 52.0573 27.7835 52.1271 27.6311 52.2288C27.4788 52.3304 27.3473 52.4621 27.2443 52.6161C27.1412 52.7702 27.0686 52.9437 27.0306 53.1267C26.9926 53.3096 26.99 53.4986 27.0228 53.6826C27.0556 53.8666 27.1233 54.0422 27.2219 54.1993Z" fill="#D4D4D8"/>
<path d="M26.7539 60.8673C27.4335 61.1125 30 60.9428 30 60.9428C30 60.9428 28.6597 59.3506 27.9854 59.1055C27.8248 59.0471 27.6498 59.0122 27.4704 59.0027C27.291 58.9931 27.1108 59.0092 26.94 59.0499C26.7692 59.0906 26.6112 59.1551 26.475 59.2399C26.3388 59.3246 26.2271 59.4279 26.1462 59.5437C26.0654 59.6596 26.0169 59.7858 26.0037 59.9152C25.9905 60.0446 26.0127 60.1746 26.0691 60.2978C26.1256 60.421 26.2151 60.5349 26.3326 60.6331C26.45 60.7314 26.5932 60.812 26.7539 60.8703V60.8673Z" fill="#D4D4D8"/>
<path d="M28.4473 66.3734C28.9347 66.8042 31 67 31 67C31 67 30.2367 64.6934 29.7526 64.2587C29.6367 64.1559 29.5051 64.0814 29.3652 64.0394C29.2253 63.9974 29.0798 63.9889 28.9371 64.0142C28.7945 64.0396 28.6574 64.0983 28.5337 64.1871C28.41 64.2758 28.3021 64.3929 28.2161 64.5316C28.1302 64.6702 28.068 64.8278 28.0329 64.9953C27.9979 65.1628 27.9907 65.3369 28.0119 65.5077C28.033 65.6785 28.0821 65.8426 28.1563 65.9907C28.2304 66.1388 28.3282 66.268 28.444 66.3708L28.4473 66.3734Z" fill="#D4D4D8"/>
<path d="M32.4995 56.0675C31.879 56.5255 29 57 29 57C29 57 29.7058 54.8166 30.3232 54.3587C30.4688 54.2449 30.6429 54.1545 30.8352 54.0929C31.0274 54.0313 31.2339 53.9997 31.4424 54C31.6509 54.0003 31.8572 54.0325 32.0491 54.0946C32.2411 54.1567 32.4147 54.2476 32.5599 54.3618C32.705 54.476 32.8187 54.6113 32.8942 54.7595C32.9696 54.9078 33.0054 55.0661 32.9993 55.2251C32.9933 55.3841 32.9455 55.5406 32.8588 55.6853C32.7722 55.83 32.6484 55.9599 32.4948 56.0675H32.4995Z" fill="#D4D4D8"/>
<path d="M34.2461 62.801C33.5665 63.1687 31 62.9143 31 62.9143C31 62.9143 32.3403 60.5259 33.0146 60.1582C33.1752 60.0707 33.3502 60.0183 33.5296 60.004C33.709 59.9897 33.8892 60.0138 34.06 60.0748C34.2308 60.1358 34.3888 60.2327 34.525 60.3598C34.6612 60.4869 34.7729 60.6418 34.8538 60.8156C34.9346 60.9894 34.9831 61.1788 34.9963 61.3728C35.0095 61.5669 34.9873 61.7619 34.9309 61.9467C34.8744 62.1314 34.7849 62.3024 34.6674 62.4497C34.55 62.5971 34.4068 62.7179 34.2461 62.8054V62.801Z" fill="#D4D4D8"/>
<path d="M34.4036 68.3734C33.7537 68.8042 31 69 31 69C31 69 32.0177 66.6934 32.6633 66.2587C32.9752 66.051 33.3663 65.9631 33.7505 66.0142C34.1346 66.0654 34.4805 66.2515 34.7118 66.5316C34.9432 66.8116 35.0411 67.1628 34.9841 67.5077C34.9272 67.8526 34.7199 68.1631 34.4079 68.3708L34.4036 68.3734Z" fill="#D4D4D8"/>
<path opacity="0.5" d="M29.0015 50.2686C29.0015 50.9694 30.5007 53 30.5007 53C30.5007 53 32 50.9682 32 50.2686C32 49.9322 31.842 49.6095 31.5607 49.3716C31.2794 49.1337 30.8978 49 30.5 49C30.1022 49 29.7206 49.1337 29.4393 49.3716C29.158 49.6095 29 49.9322 29 50.2686H29.0015Z" fill="white"/>
<path opacity="0.5" d="M27.2219 54.1993C27.6339 54.859 30 56 30 56C30 56 29.9574 53.3103 29.5427 52.6506C29.4441 52.4935 29.3164 52.358 29.1669 52.2518C29.0175 52.1456 28.8492 52.0707 28.6717 52.0316C28.4942 51.9924 28.3109 51.9897 28.1324 52.0235C27.9539 52.0573 27.7835 52.1271 27.6311 52.2288C27.4788 52.3304 27.3473 52.4621 27.2443 52.6161C27.1412 52.7702 27.0686 52.9437 27.0306 53.1267C26.9926 53.3096 26.99 53.4986 27.0228 53.6826C27.0556 53.8666 27.1233 54.0422 27.2219 54.1993Z" fill="white"/>
<path opacity="0.5" d="M26.7539 60.8673C27.4335 61.1125 30 60.9428 30 60.9428C30 60.9428 28.6597 59.3506 27.9854 59.1055C27.8248 59.0471 27.6498 59.0122 27.4704 59.0027C27.291 58.9931 27.1108 59.0092 26.94 59.0499C26.7692 59.0906 26.6112 59.1551 26.475 59.2399C26.3388 59.3246 26.2271 59.4279 26.1462 59.5437C26.0654 59.6596 26.0169 59.7858 26.0037 59.9152C25.9905 60.0446 26.0127 60.1746 26.0691 60.2978C26.1256 60.421 26.2151 60.5349 26.3326 60.6331C26.45 60.7314 26.5932 60.812 26.7539 60.8703V60.8673Z" fill="white"/>
<path opacity="0.5" d="M28.4473 66.3734C28.9347 66.8042 31 67 31 67C31 67 30.2367 64.6934 29.7526 64.2587C29.6367 64.1559 29.5051 64.0814 29.3652 64.0394C29.2253 63.9974 29.0798 63.9889 28.9371 64.0142C28.7945 64.0396 28.6574 64.0983 28.5337 64.1871C28.41 64.2758 28.3021 64.3929 28.2161 64.5316C28.1302 64.6702 28.068 64.8278 28.0329 64.9953C27.9979 65.1628 27.9907 65.3369 28.0119 65.5077C28.033 65.6785 28.0821 65.8426 28.1563 65.9907C28.2304 66.1388 28.3282 66.268 28.444 66.3708L28.4473 66.3734Z" fill="white"/>
<path opacity="0.5" d="M32.4995 56.0675C31.879 56.5255 29 57 29 57C29 57 29.7058 54.8166 30.3232 54.3587C30.4688 54.2449 30.6429 54.1545 30.8352 54.0929C31.0274 54.0313 31.2339 53.9997 31.4424 54C31.6509 54.0003 31.8572 54.0325 32.0491 54.0946C32.2411 54.1567 32.4147 54.2476 32.5599 54.3618C32.705 54.476 32.8187 54.6113 32.8942 54.7595C32.9696 54.9078 33.0054 55.0661 32.9993 55.2251C32.9933 55.3841 32.9455 55.5406 32.8588 55.6853C32.7722 55.83 32.6484 55.9599 32.4948 56.0675H32.4995Z" fill="white"/>
<path opacity="0.5" d="M34.2461 62.801C33.5665 63.1687 31 62.9143 31 62.9143C31 62.9143 32.3403 60.5259 33.0146 60.1582C33.1752 60.0707 33.3502 60.0183 33.5296 60.004C33.709 59.9897 33.8892 60.0138 34.06 60.0748C34.2308 60.1358 34.3888 60.2327 34.525 60.3598C34.6612 60.4869 34.7729 60.6418 34.8538 60.8156C34.9346 60.9894 34.9831 61.1788 34.9963 61.3728C35.0095 61.5669 34.9873 61.7619 34.9309 61.9467C34.8744 62.1314 34.7849 62.3024 34.6674 62.4497C34.55 62.5971 34.4068 62.7179 34.2461 62.8054V62.801Z" fill="white"/>
<path opacity="0.5" d="M34.4036 68.3734C33.7537 68.8042 31 69 31 69C31 69 32.0177 66.6934 32.6633 66.2587C32.9752 66.051 33.3663 65.9631 33.7505 66.0142C34.1346 66.0654 34.4805 66.2515 34.7118 66.5316C34.9432 66.8116 35.0411 67.1628 34.9841 67.5077C34.9272 67.8526 34.7199 68.1631 34.4079 68.3708L34.4036 68.3734Z" fill="white"/>
</g>
<path d="M42.8339 37.5605H21.3532C20.7581 37.5599 20.1875 37.3237 19.7666 36.9038C19.3458 36.4838 19.1091 35.9145 19.1084 35.3207V7.34797C19.1091 6.75414 19.3458 6.18482 19.7666 5.76492C20.1875 5.34502 20.7581 5.10882 21.3532 5.10815H42.8339C43.4291 5.10882 43.9996 5.34502 44.4205 5.76492C44.8413 6.18482 45.0781 6.75414 45.0787 7.34797V35.3207C45.0781 35.9145 44.8413 36.4838 44.4205 36.9038C43.9997 37.3237 43.4291 37.5599 42.8339 37.5605Z" fill="#F0F0F0"/>
<path d="M42.8339 37.6687H21.3532C20.7293 37.668 20.1312 37.4203 19.69 36.9802C19.2489 36.54 19.0007 35.9432 19 35.3206V7.34799C19.0007 6.72549 19.2489 6.12868 19.69 5.6885C20.1312 5.24832 20.7293 5.00071 21.3532 5H42.8339C43.4578 5.0007 44.0559 5.2483 44.4971 5.68848C44.9383 6.12866 45.1864 6.72548 45.1872 7.34799V35.3206C45.1864 35.9432 44.9383 36.54 44.4971 36.9802C44.0559 37.4204 43.4578 37.668 42.8339 37.6687ZM21.3532 5.21635C20.7868 5.21699 20.2438 5.44177 19.8433 5.8414C19.4428 6.24102 19.2175 6.78284 19.2168 7.34799V35.3206C19.2175 35.8858 19.4427 36.4276 19.8433 36.8273C20.2438 37.2269 20.7868 37.4517 21.3532 37.4523H42.8339C43.4003 37.4517 43.9434 37.2269 44.3439 36.8273C44.7444 36.4276 44.9697 35.8858 44.9703 35.3206V7.34799C44.9697 6.78283 44.7444 6.24101 44.3439 5.84138C43.9433 5.44176 43.4003 5.21698 42.8339 5.21635H21.3532Z" fill="#D4D4D8"/>
<path d="M74.7255 64.4524H53.2448C52.6497 64.4517 52.0791 64.2155 51.6582 63.7956C51.2374 63.3757 51.0007 62.8064 51 62.2125V34.2398C51.0007 33.646 51.2374 33.0767 51.6582 32.6568C52.0791 32.2369 52.6497 32.0007 53.2448 32H74.7255C75.3207 32.0007 75.8913 32.2369 76.3121 32.6568C76.7329 33.0767 76.9697 33.646 76.9703 34.2398V62.2125C76.9697 62.8064 76.7329 63.3757 76.3121 63.7956C75.8913 64.2155 75.3207 64.4517 74.7255 64.4524Z" fill="#F0F0F0"/>
<path d="M24.8986 22.6122C24.8626 22.5327 24.8442 22.4464 24.8447 22.3592C24.8452 22.272 24.8646 22.1859 24.9015 22.1068L26.1891 19.3445C26.3161 18.9167 26.608 18.5566 27.0007 18.3431C27.3935 18.1296 27.855 18.0802 28.2841 18.2057C28.7133 18.3313 29.0751 18.6214 29.2902 19.0127C29.5053 19.4039 29.5561 19.8642 29.4316 20.2928L29.0012 23.3188C28.9889 23.4051 28.9581 23.4878 28.9109 23.5613C28.8637 23.6347 28.8012 23.6971 28.7276 23.7442C28.6541 23.7913 28.5712 23.8221 28.4847 23.8344C28.3981 23.8467 28.3099 23.8402 28.2261 23.8154L25.2803 22.9446C25.1965 22.9198 25.119 22.8773 25.0531 22.82C24.9872 22.7626 24.9345 22.6917 24.8986 22.6122Z" fill="#3F3D56"/>
<path d="M38.9066 21.2341L35.9608 22.105C35.8769 22.1298 35.7888 22.1362 35.7022 22.1239C35.6157 22.1116 35.5328 22.0809 35.4592 22.0337C35.3857 21.9866 35.3232 21.9242 35.276 21.8508C35.2288 21.7774 35.198 21.6947 35.1857 21.6083L34.7553 18.5824C34.6308 18.1538 34.6816 17.6934 34.8967 17.3022C35.1118 16.911 35.4736 16.6208 35.9027 16.4953C36.3319 16.3698 36.7934 16.4192 37.1862 16.6327C37.5789 16.8461 37.8707 17.2063 37.9978 17.6341L39.2854 20.3963C39.3223 20.4754 39.3416 20.5615 39.3421 20.6488C39.3426 20.736 39.3242 20.8223 39.2883 20.9018C39.2523 20.9813 39.1996 21.0521 39.1338 21.1095C39.0679 21.1668 38.9904 21.2093 38.9066 21.2341Z" fill="#3F3D56"/>
<path d="M27.3177 18.7674L29.6279 17.091L33.4082 16.0432L36.5584 16.6719L36.7436 18.4088C36.9689 20.5215 36.871 22.6561 36.4534 24.7395L36.3767 26.3451L28.2628 26.6255L27.4227 25.1586C27.4227 25.1586 25.5326 23.2727 27.0027 21.1772L27.3177 18.7674Z" fill="#3F3D56"/>
<path d="M68.9881 42.3565V44.2195L68.8057 46.4953C68.8057 46.4953 68.7481 48.4828 68.6784 50.0504C68.6362 51.0033 68.5889 51.8009 68.5476 51.9039C68.4968 52.0301 68.5089 52.3744 68.5381 52.7358C68.5726 53.1539 68.6294 53.5951 68.6388 53.7428C68.6569 54.0184 68.5106 55.2023 68.5106 55.2023C68.5106 55.2023 68.3471 58.171 68.1097 58.4079C67.8722 58.6448 68.1097 59.3188 68.1097 59.3188C66.9963 60.1378 65.5904 59.1368 65.5904 59.1368C65.901 58.6431 65.4079 55.2735 65.4079 55.2735C65.4079 55.2735 65.3357 54.1231 65.1894 53.8141C65.0432 53.505 65.0061 51.5742 65.0061 51.5742V48.7146C65.0061 48.7146 64.6224 48.1291 64.5682 47.8561C64.514 47.5831 64.5682 46.6181 64.5682 46.6181L64.1672 45.2703L63.8928 46.3262C63.8928 46.3262 63.1821 49.2769 63.0539 49.6409C62.9842 49.8842 63.0101 50.1448 63.1262 50.3698C63.1262 50.3698 63.3094 50.9312 63.1262 51.1888C63.0123 51.3501 62.9251 51.5287 62.868 51.7176C62.868 51.7176 62.7742 52.7924 62.6099 53.1771C62.4456 53.5617 62.3002 54.0356 62.3002 54.0356C62.3002 54.0356 62.3389 54.7618 62.1746 54.9258C62.0102 55.0898 61.956 55.9097 61.956 55.9097C61.956 55.9097 61.9921 56.8377 61.7727 57.1657C61.5533 57.4936 61.5533 59.3514 61.5533 59.3514C61.1728 59.595 60.7343 59.7335 60.2826 59.7526C59.8309 59.7718 59.3823 59.671 58.9824 59.4604C58.9824 59.4604 59.1993 59.2578 59.0349 58.3135C58.8706 57.3691 59.1528 54.7979 59.1528 54.7979C59.1528 54.7979 59.1167 54.1454 59.299 53.8535C59.4814 53.5617 59.207 52.9976 59.2801 52.7426C59.3533 52.4877 59.5727 51.1029 59.5727 51.1029C59.5727 51.1029 59.4814 47.6972 59.4814 47.5152C59.4599 47.1913 59.372 46.8751 59.2233 46.5863C59.059 46.2953 59.2233 44.1825 59.2233 44.1825C59.2233 44.1825 59.6105 43.0905 59.4814 42.8536C59.3524 42.6166 59.5675 42.1977 59.5675 42.1977C59.5675 42.1977 59.367 41.7058 59.5675 41.6148C59.768 41.5238 59.805 41.1598 59.805 41.1598L59.9443 39.393C59.9443 39.393 59.9968 38.5911 60.1638 38.5551C60.3307 38.519 60.2575 38.2099 60.4219 37.991C60.502 37.843 60.5572 37.6829 60.5854 37.5171C60.6086 37.4158 60.6301 37.3102 60.6482 37.2089C60.6998 36.9342 60.7316 36.6973 60.7316 36.6973C61.8089 37.5901 67.4729 36.9643 67.479 36.9643C67.8386 37.0424 68.2663 38.2881 68.5751 39.3741C68.8497 40.3445 68.9887 41.3481 68.9881 42.3565Z" fill="#3F3D56"/>
<path d="M31.7135 41.0223C33.8577 41.0223 35.596 39.288 35.596 37.1485C35.596 35.009 33.8577 33.2747 31.7135 33.2747C29.5693 33.2747 27.8311 35.009 27.8311 37.1485C27.8311 39.288 29.5693 41.0223 31.7135 41.0223Z" fill="#4CB04C"/>
<path d="M31.1838 39.1648C31.1167 39.1648 31.0506 39.1493 30.9906 39.1193C30.9307 39.0894 30.8785 39.046 30.8383 38.9924L29.7791 37.5833C29.745 37.538 29.7201 37.4865 29.706 37.4317C29.6919 37.3768 29.6887 37.3197 29.6967 37.2636C29.7047 37.2076 29.7237 37.1536 29.7526 37.1049C29.7815 37.0561 29.8197 37.0135 29.8651 36.9796C29.9106 36.9456 29.9622 36.9209 30.0172 36.9068C30.0722 36.8928 30.1294 36.8897 30.1856 36.8978C30.2418 36.9058 30.2959 36.9248 30.3447 36.9537C30.3935 36.9827 30.4361 37.0209 30.4701 37.0662L31.1631 37.9881L32.9428 35.3244C32.9742 35.2771 33.0146 35.2364 33.0618 35.2048C33.1089 35.1731 33.1619 35.1511 33.2176 35.1398C33.2733 35.1286 33.3307 35.1285 33.3864 35.1395C33.4422 35.1504 33.4952 35.1723 33.5425 35.2037C33.5898 35.2352 33.6304 35.2756 33.662 35.3228C33.6936 35.3699 33.7155 35.4228 33.7266 35.4784C33.7376 35.534 33.7376 35.5913 33.7264 35.6469C33.7153 35.7025 33.6932 35.7553 33.6615 35.8024L31.5431 38.973C31.5048 39.0303 31.4533 39.0776 31.3928 39.111C31.3324 39.1444 31.2648 39.1628 31.1958 39.1647C31.1918 39.1648 31.1878 39.1648 31.1838 39.1648Z" fill="white"/>
<defs>
<clipPath id="clip0_748_1267">
<rect width="98" height="85" fill="white" transform="translate(-3)"/>
</clipPath>
</defs>
</svg>
